<svg xmlns="http://www.w3.org/2000/svg" width="1200" height="750" viewBox="0 0 1200 750" role="img" aria-labelledby="title desc">
  <title id="title">Salada de grão-de-bico mediterrânea</title>
  <desc id="desc">Tigela de salada com grão-de-bico, tomate, pepino, folhas e azeite.</desc>
  <rect width="1200" height="750" fill="#FFF7ED"/>
  <rect x="0" y="0" width="1200" height="240" fill="#047857"/>
  <ellipse cx="600" cy="390" rx="390" ry="190" fill="#0A4D68" opacity=".16"/>
  <ellipse cx="600" cy="365" rx="360" ry="178" fill="#FFFFFF"/>
  <ellipse cx="600" cy="365" rx="300" ry="130" fill="#DCFCE7"/>
  <g opacity=".95">
    <circle cx="470" cy="330" r="22" fill="#EAB308"/>
    <circle cx="525" cy="405" r="20" fill="#EAB308"/>
    <circle cx="645" cy="324" r="21" fill="#EAB308"/>
    <circle cx="710" cy="405" r="19" fill="#EAB308"/>
    <circle cx="590" cy="365" r="20" fill="#EAB308"/>
    <circle cx="520" cy="326" r="28" fill="#EF4444"/>
    <circle cx="695" cy="345" r="30" fill="#EF4444"/>
    <rect x="570" y="420" width="82" height="30" rx="15" fill="#0EA5E9"/>
    <rect x="430" y="392" width="78" height="28" rx="14" fill="#10B981"/>
    <path d="M515 460c60-60 130-58 190 2" fill="none" stroke="#047857" stroke-width="28" stroke-linecap="round"/>
  </g>
  <path d="M330 550h540" stroke="#0C0A09" stroke-width="18" stroke-linecap="round" opacity=".12"/>
  <text x="600" y="690" text-anchor="middle" font-family="Arial, sans-serif" font-size="38" font-weight="700" fill="#0A4D68">Salada mediterrânea</text>
</svg>
