<svg xmlns="http://www.w3.org/2000/svg" viewBox="0 0 1200 720" role="img" aria-labelledby="title desc">
  <title id="title">Polilaminina e matriz extracelular</title>
  <desc id="desc">Ilustracao editorial de lamininas, matriz extracelular e sinalizacao celular.</desc>
  <defs>
    <linearGradient id="bg" x1="0" x2="1" y1="0" y2="1"><stop stop-color="#0A4D68"/><stop offset="0.58" stop-color="#047857"/><stop offset="1" stop-color="#D97706"/></linearGradient>
    <radialGradient id="cell" cx="50%" cy="50%" r="55%"><stop stop-color="#ffffff" stop-opacity="0.92"/><stop offset="1" stop-color="#dbeafe" stop-opacity="0.72"/></radialGradient>
    <filter id="soft"><feGaussianBlur stdDeviation="18"/></filter>
  </defs>
  <rect width="1200" height="720" fill="url(#bg)"/>
  <circle cx="160" cy="110" r="170" fill="#fff" opacity="0.10" filter="url(#soft)"/>
  <circle cx="1010" cy="620" r="230" fill="#fff" opacity="0.11" filter="url(#soft)"/>
  <g fill="none" stroke="#e0f2fe" stroke-width="10" stroke-linecap="round" opacity="0.82">
    <path d="M112 540C242 418 358 584 492 456S738 298 890 386s196-56 258-142"/>
    <path d="M54 294c134-86 234-64 336 26s216 92 330 8 238-106 416-36" opacity="0.62"/>
    <path d="M214 154c108 58 172 136 292 112s196-116 326-86 206 102 292 76" opacity="0.48"/>
  </g>
  <g stroke="#ffffff" stroke-width="5" opacity="0.88">
    <line x1="280" y1="292" x2="444" y2="430"/><line x1="444" y1="430" x2="602" y2="322"/><line x1="602" y1="322" x2="782" y2="420"/><line x1="782" y1="420" x2="940" y2="312"/>
    <line x1="366" y1="520" x2="444" y2="430"/><line x1="602" y1="322" x2="638" y2="194"/><line x1="782" y1="420" x2="850" y2="542"/>
  </g>
  <g>
    <circle cx="280" cy="292" r="54" fill="url(#cell)"/><circle cx="444" cy="430" r="66" fill="url(#cell)"/><circle cx="602" cy="322" r="58" fill="url(#cell)"/><circle cx="782" cy="420" r="72" fill="url(#cell)"/><circle cx="940" cy="312" r="56" fill="url(#cell)"/>
    <circle cx="366" cy="520" r="42" fill="#fde68a" opacity="0.92"/><circle cx="638" cy="194" r="46" fill="#bbf7d0" opacity="0.92"/><circle cx="850" cy="542" r="44" fill="#fed7aa" opacity="0.92"/>
  </g>
  <g fill="#ffffff" opacity="0.95" font-family="Arial, sans-serif">
    <text x="72" y="94" font-size="34" font-weight="700">Polilaminina</text>
    <text x="72" y="136" font-size="22">lamininas, matriz extracelular e suporte tecidual</text>
  </g>
</svg>